<svg width="80" height="70" viewBox="0 0 80 70" fill="none" xmlns="http://www.w3.org/2000/svg">
<path d="M9.83334 12.6014H9.83338C11.9464 12.6014 13.7421 11.0336 13.7421 9.00235C13.7421 6.9712 11.9464 5.40355 9.83338 5.40355C7.72168 5.40355 5.92612 6.97149 5.92612 9.00235C5.92612 11.0333 7.72166 12.6013 9.83334 12.6014ZM7.2055 0.5H72.7942C76.5428 0.5 79.5 3.25307 79.5 6.55348V27.7033C79.5 31.0036 76.5428 33.7566 72.7942 33.7566H7.2055C3.45707 33.7566 0.5 31.0037 0.5 27.7033V6.55348C0.5 3.25305 3.45709 0.5 7.2055 0.5ZM13.2421 24.3699H66.7603C68.4645 24.3699 69.927 23.104 69.927 21.4448C69.927 19.7861 68.4646 18.5198 66.7603 18.5198H13.2421C11.5378 18.5198 10.0759 19.7861 10.0759 21.4448C10.0759 23.1039 11.5378 24.3699 13.2421 24.3699Z" fill="black" stroke="black"/>
<path d="M22.9353 45.4094C16.8425 47.3581 18.2824 55.7985 18.5802 58.514C18.9642 62.0152 21.1696 66.8188 18.9385 70C24.9519 67.8414 23.5669 59.0648 23.369 57.4338C23.1581 55.8358 20.8629 47.9468 22.9353 45.4094Z" fill="black" fill-opacity="0.8"/>
<path d="M61.921 45.4094C55.8283 47.3581 57.2683 55.7985 57.566 58.514C57.95 62.0152 60.1556 66.8188 57.9243 70C63.9376 67.8414 62.5527 59.0648 62.355 57.4338C62.1441 55.8358 59.849 47.9468 61.921 45.4094Z" fill="black" fill-opacity="0.8"/>
<path d="M42.3442 36.163C36.2515 38.1118 37.6914 46.5522 37.989 49.2676C38.373 52.7689 40.5786 57.5725 38.3474 60.7538C44.3607 58.5952 42.9757 49.8184 42.778 48.1877C42.5671 46.5896 40.2719 38.7006 42.3442 36.163Z" fill="black" fill-opacity="0.8"/>
</svg>
