<svg width="69" height="85" viewBox="0 0 69 85" fill="none" xmlns="http://www.w3.org/2000/svg">
<path d="M53.625 50.9075C53.625 47.0777 56.7511 43.9586 60.5957 43.9586C64.4403 43.9586 67.5664 47.0777 67.5664 50.9075C67.5664 54.7373 64.4403 57.8564 60.5957 57.8564C56.7511 57.8564 53.625 54.7373 53.625 50.9075ZM57.6055 50.9075C57.6055 52.5541 58.9478 53.8905 60.5957 53.8905C62.2436 53.8905 63.5859 52.5541 63.5859 50.9075C63.5859 49.2609 62.2436 47.9245 60.5957 47.9245C58.9478 47.9245 57.6055 49.2609 57.6055 50.9075Z" fill="#070608" fill-opacity="0.95" stroke="white"/>
<path d="M51.8963 62.0155L51.9979 62.2697L52.2667 62.3211C56.2494 63.0836 59.2656 66.5848 59.2656 70.7712C59.2656 75.5137 55.3948 79.3754 50.6348 79.3754C47.9874 79.3754 45.556 78.1824 43.9409 76.1711L43.765 75.952L43.4864 75.9884C43.0931 76.0396 42.7105 76.0648 42.3342 76.0648C42.3226 76.0648 42.3093 76.0644 42.288 76.0636L42.2815 76.0634C42.263 76.0627 42.2377 76.0618 42.2119 76.0615L41.9079 76.058L41.7649 76.3263C40.4879 78.7222 38.9994 81.1292 37.3197 83.5014L37.7277 83.7904L37.3196 83.5014C36.9469 84.0279 36.3407 84.3413 35.6934 84.3413H2.49023C1.38972 84.3413 0.5 83.4521 0.5 82.3584V26.0779C0.5 24.9842 1.38972 24.095 2.49023 24.095H6.64063H7.14063V23.595V16.1461C7.14063 15.0523 8.03035 14.1631 9.13086 14.1631H11.6211H12.1211V13.6631V5.05552V4.55552H11.6211H10.791C9.69051 4.55552 8.80078 3.6663 8.80078 2.57256C8.80078 1.47882 9.69051 0.5896 10.791 0.5896H32.373C33.0391 0.5896 33.6606 0.921588 34.0297 1.47333L37.3499 6.43916C37.9587 7.34972 37.7124 8.5803 36.798 9.18806L36.798 9.1881C36.4581 9.41405 36.075 9.52177 35.6957 9.52177C35.0503 9.52177 34.4201 9.21067 34.037 8.63778L31.4559 4.7776L31.3074 4.55552H31.0403H26.5625H26.0625V5.05552V13.6631V14.1631H26.5625H29.0527C30.1532 14.1631 31.043 15.0523 31.043 16.1461V23.595V24.095H31.543H35.6934C36.3409 24.095 36.9473 24.4086 37.32 24.935C44.7583 35.4442 48.182 46.1086 47.5669 56.6692L47.5496 56.9646L47.8003 57.1218C49.6261 58.2673 51.0797 59.9711 51.8963 62.0155ZM16.6016 4.55552H16.1016V5.05552V13.6631V14.1631H16.6016H21.582H22.082V13.6631V5.05552V4.55552H21.582H16.6016ZM11.6211 18.129H11.1211V18.629V23.595V24.095H11.6211H26.5625H27.0625V23.595V18.629V18.129H26.5625H11.6211ZM34.8016 28.2798L34.6528 28.0609H34.3881H4.98047H4.48047V28.5609V33.5268V34.0268H4.98047H37.4357H38.2804L37.874 33.2863C36.9571 31.6153 35.9345 29.9461 34.8016 28.2798ZM4.98047 47.9246H4.48047V48.4246V68.2882V68.7882H4.98047H21.582H22.082V68.2882V48.4246V47.9246H21.582H4.98047ZM34.3885 80.3754H34.6531L34.8019 80.1566C35.8472 78.6198 36.8049 77.0728 37.6702 75.5288L37.919 75.0847L37.4705 74.8439C34.2405 73.1093 32.043 69.7073 32.043 65.8053C32.043 60.15 36.6586 55.5458 42.334 55.5458C42.5947 55.5458 42.8538 55.5559 43.1108 55.5755L43.6373 55.6156L43.6487 55.0877C43.769 49.5181 42.6443 43.9057 40.299 38.2997L40.1706 37.9927H39.8378H4.98047H4.48047V38.4927V43.4586V43.9586H4.98047H24.0723C25.1728 43.9586 26.0625 44.8479 26.0625 45.9416V70.7712C26.0625 71.8649 25.1728 72.7542 24.0723 72.7542H4.98047H4.48047V73.2542V79.8754V80.3754H4.98047H34.3885ZM44.1338 71.798L43.9905 71.3189L44.1338 71.798C44.324 71.7411 44.5164 71.714 44.706 71.714C45.4468 71.714 46.1463 72.128 46.4888 72.8162C47.2828 74.4111 48.8711 75.4095 50.6348 75.4095C53.1981 75.4095 55.2852 73.3306 55.2852 70.7712C55.2852 68.2563 53.2698 66.2054 50.7677 66.1348L50.735 66.1339L50.7024 66.1372C50.6507 66.1425 50.5894 66.1472 50.5218 66.149C49.5495 66.1677 48.7076 65.4982 48.5178 64.5571C47.9281 61.6312 45.3272 59.5117 42.334 59.5117C38.8553 59.5117 36.0234 62.3332 36.0234 65.8053C36.0234 69.2774 38.8553 72.0989 42.334 72.0989C42.8877 72.0989 43.4639 71.9983 44.1338 71.798Z" fill="#070608" fill-opacity="0.95" stroke="white"/>
</svg>

