<svg width="80" height="80" viewBox="0 0 80 80" fill="none" xmlns="http://www.w3.org/2000/svg">
<path d="M32.4846 23.798C31.8374 23.798 31.3127 24.3225 31.3127 24.9698V26.2223C31.3127 26.8697 31.8374 27.3942 32.4846 27.3942C33.1318 27.3942 33.6565 26.8697 33.6565 26.2223V24.9698C33.6565 24.3225 33.1318 23.798 32.4846 23.798Z" fill="black"/>
<path d="M47.5149 23.798C46.8677 23.798 46.343 24.3225 46.343 24.9698V26.2223C46.343 26.8697 46.8677 27.3942 47.5149 27.3942C48.1621 27.3942 48.6868 26.8697 48.6868 26.2223V24.9698C48.6868 24.3225 48.1621 23.798 47.5149 23.798Z" fill="black"/>
<path d="M44.5915 32.9144C44.137 32.4536 43.3949 32.4487 42.9343 32.9033C42.5066 33.3253 41.4815 33.8181 39.9999 33.8181C38.5184 33.8181 37.4932 33.3253 37.0655 32.9033C36.6048 32.4489 35.8629 32.4534 35.4084 32.9144C34.9537 33.375 34.9587 34.1169 35.4193 34.5716C36.4285 35.5673 38.1409 36.1619 39.9999 36.1619C41.859 36.1619 43.5713 35.5673 44.5805 34.5716C45.0412 34.1169 45.0462 33.375 44.5915 32.9144Z" fill="black"/>
<path d="M64.9963 54.8244L55.4977 52.0306L52.1177 47.5241C51.6095 46.8464 50.8335 46.4311 49.9888 46.3845C49.9721 46.3836 49.9559 46.3852 49.9391 46.3845V43.0661C53.8474 40.348 56.598 36.0753 57.2859 31.1517H57.9826C60.2665 31.1517 62.2254 29.4547 62.4424 27.2881C62.564 26.0739 62.1666 24.8614 61.3526 23.9617C60.9585 23.5264 60.4826 23.1819 59.9593 22.9411V16.202H59.9584C59.9584 16.1072 59.9477 16.0117 59.9243 15.9178L56.8784 3.73391C56.3288 1.53547 54.3623 0 52.0962 0H27.9034C25.6373 0 23.6707 1.53547 23.1212 3.73375L20.0752 15.9178C20.0518 16.0119 20.0412 16.1072 20.0412 16.202H20.0402V22.9931C18.6916 23.6361 17.7074 24.9097 17.5573 26.4086C17.4357 27.6228 17.8329 28.8352 18.647 29.735C19.4616 30.6353 20.6248 31.1516 21.8384 31.1516H22.713C23.4004 36.0769 26.151 40.35 30.0604 43.0678V46.3845C30.0438 46.3852 30.0274 46.3836 30.0107 46.3845C29.166 46.4311 28.3901 46.8464 27.8818 47.5241L24.5018 52.0306L15.0034 54.8242C11.3318 55.9041 8.76758 59.3313 8.76758 63.1583V78.8281C8.76758 79.4755 9.29227 80 9.93945 80C10.5866 80 11.1113 79.4755 11.1113 78.8281V63.1584C11.1113 60.3639 12.9837 57.8616 15.6648 57.073L25.206 54.2667C26.5027 55.5972 28.0698 56.7241 29.8273 57.6161H24.9698C21.561 57.6161 18.7877 60.3894 18.7877 63.798C18.7877 64.4453 19.3124 64.9698 19.9596 64.9698C20.6068 64.9698 21.1315 64.4453 21.1315 63.798C21.1315 61.6816 22.8534 59.9598 24.9698 59.9598H39.9998C45.8573 59.9598 51.3037 57.8477 54.7938 54.2667L64.3351 57.073C67.016 57.8616 68.8885 60.3641 68.8885 63.1584V78.8281C68.8885 79.4755 69.4132 80 70.0604 80C70.7076 80 71.2323 79.4755 71.2323 78.8281V63.1584C71.2321 59.3314 68.6679 55.9042 64.9963 54.8244ZM23.3795 12.3639H47.5145C48.1616 12.3639 48.6863 11.8394 48.6863 11.192C48.6863 10.5447 48.1616 10.0202 47.5145 10.0202H23.9654L25.3948 4.30234C25.6832 3.14906 26.7146 2.34375 27.9034 2.34375H52.0962C53.2849 2.34375 54.3163 3.14906 54.6048 4.30234L56.0341 10.0202H52.5249C51.8777 10.0202 51.353 10.5447 51.353 11.192C51.353 11.8394 51.8777 12.3639 52.5249 12.3639H56.6201L57.2866 15.0302H22.7129L23.3795 12.3639ZM57.6157 17.3741V22.5453H56.2826C55.5474 22.5453 54.9495 21.9473 54.9495 21.2122V17.3741H57.6157ZM22.3838 17.3739H25.0501V21.212C25.0501 21.9472 24.452 22.5452 23.717 22.5452H22.3838V17.3739ZM24.889 28.7272C24.889 28.0798 24.3643 27.5553 23.7171 27.5553C23.0699 27.5553 22.5452 28.0798 22.5452 28.7272V28.808H21.8384C21.2857 28.808 20.756 28.5727 20.3848 28.1625C20.0087 27.7469 19.8327 27.207 19.8895 26.6423C19.9879 25.6592 20.9226 24.8891 22.0173 24.8891H23.7173C25.7448 24.8891 27.3941 23.2395 27.3941 21.2122V17.3741H52.6057V21.2122C52.6057 23.2397 54.2552 24.8891 56.2826 24.8891H58.1613C58.714 24.8891 59.2437 25.1244 59.6148 25.5345C59.9909 25.95 60.1668 26.49 60.1102 27.0547C60.0118 28.0378 59.0773 28.808 57.9826 28.808H57.4537V28.7395C57.4537 28.0925 56.9293 27.568 56.2823 27.5677C56.2823 27.5677 56.282 27.5677 56.2818 27.5677C55.6349 27.5677 55.1104 28.0917 55.1099 28.7386C55.1038 37.0645 48.3254 43.8383 39.9996 43.8383C31.6676 43.8381 24.889 37.0595 24.889 28.7272ZM26.9388 52.6873L29.7566 48.9303C29.8484 48.8081 29.9879 48.7331 30.1395 48.7248C30.2357 48.7202 30.3751 48.7391 30.4901 48.8617C31.843 50.3037 33.904 51.4189 36.2932 52.0019C36.2995 52.005 36.3226 52.0298 36.3226 52.0703L36.3229 57.3048C32.581 56.66 29.256 55.0402 26.9388 52.6873ZM41.3334 52.0702L41.333 57.5756C40.4516 57.6291 39.548 57.6291 38.6668 57.5756L38.6665 52.0702C38.6665 50.9503 37.9191 49.9859 36.8488 49.7248C35.047 49.2852 33.4465 48.4689 32.4043 47.465V44.4403C34.702 45.5555 37.2791 46.1819 40.0001 46.1819C42.7207 46.1819 45.2979 45.555 47.5959 44.4391V47.4648C46.5535 48.4688 44.9532 49.285 43.1512 49.7247C42.0807 49.9859 41.3334 50.9503 41.3334 52.0702ZM43.6768 57.3047L43.6771 52.0702C43.6771 52.0297 43.7002 52.0048 43.7065 52.0017C46.0957 51.4189 48.1565 50.3037 49.5096 48.8616C49.614 48.7503 49.738 48.7239 49.8321 48.7239C49.8418 48.7239 49.8512 48.7242 49.8602 48.7247C50.0118 48.7331 50.1512 48.808 50.2429 48.9302L53.0607 52.6872C50.7435 55.0402 47.4185 56.66 43.6768 57.3047Z" fill="black"/>
<path d="M33.7372 20.0403H31.2322C30.585 20.0403 30.0603 20.5648 30.0603 21.2122C30.0603 21.8595 30.585 22.3841 31.2322 22.3841H33.7372C34.3844 22.3841 34.9091 21.8595 34.9091 21.2122C34.9091 20.5648 34.3845 20.0403 33.7372 20.0403Z" fill="black"/>
<path d="M48.7675 20.0403H46.2625C45.6153 20.0403 45.0906 20.5648 45.0906 21.2122C45.0906 21.8595 45.6151 22.3841 46.2625 22.3841H48.7675C49.4146 22.3841 49.9393 21.8595 49.9393 21.2122C49.9393 20.5648 49.4146 20.0403 48.7675 20.0403Z" fill="black"/>
<path d="M19.9595 67.6361C19.3123 67.6361 18.7876 68.1606 18.7876 68.808V78.8281C18.7876 79.4755 19.3123 80 19.9595 80C20.6067 80 21.1313 79.4755 21.1313 78.8281V68.808C21.1313 68.1608 20.6067 67.6361 19.9595 67.6361Z" fill="black"/>
<path d="M24.9821 63.8784H24.9696C24.3224 63.8784 23.804 64.403 23.804 65.0503C23.804 65.6977 24.3349 66.2222 24.9821 66.2222C25.6293 66.2222 26.154 65.6977 26.154 65.0503C26.154 64.403 25.6293 63.8784 24.9821 63.8784Z" fill="black"/>
<path d="M55.0425 63.8784H55.0299C54.3827 63.8784 53.8643 64.403 53.8643 65.0503C53.8643 65.6977 54.3952 66.2222 55.0425 66.2222C55.6899 66.2222 56.2144 65.6977 56.2144 65.0503C56.2144 64.403 55.6897 63.8784 55.0425 63.8784Z" fill="black"/>
<path d="M55.0425 70.1411H55.0299C54.3827 70.1411 53.8643 70.6656 53.8643 71.313C53.8643 71.9603 54.3952 72.4848 55.0425 72.4848C55.6899 72.4848 56.2144 71.9603 56.2144 71.313C56.2144 70.6656 55.6897 70.1411 55.0425 70.1411Z" fill="black"/>
<path d="M24.9821 70.1411H24.9696C24.3224 70.1411 23.804 70.6656 23.804 71.313C23.804 71.9603 24.3349 72.4848 24.9821 72.4848C25.6293 72.4848 26.154 71.9603 26.154 71.313C26.154 70.6656 25.6293 70.1411 24.9821 70.1411Z" fill="black"/>
<path d="M55.0425 76.4036H55.0299C54.3827 76.4036 53.8643 76.9281 53.8643 77.5755C53.8643 78.2228 54.3952 78.7473 55.0425 78.7473C55.6899 78.7473 56.2144 78.2228 56.2144 77.5755C56.2144 76.9281 55.6897 76.4036 55.0425 76.4036Z" fill="black"/>
<path d="M24.9821 76.4036H24.9696C24.3224 76.4036 23.804 76.9281 23.804 77.5755C23.804 78.2228 24.3349 78.7473 24.9821 78.7473C25.6293 78.7473 26.154 78.2228 26.154 77.5755C26.154 76.9281 25.6293 76.4036 24.9821 76.4036Z" fill="black"/>
</svg>
