<svg width="80" height="80" viewBox="0 0 80 80" fill="none" xmlns="http://www.w3.org/2000/svg">
<path d="M78.4375 69.259H75.3125V8.81111C75.3125 7.95066 74.6128 7.25317 73.75 7.25317H62.2395V1.64461C62.2395 0.784158 61.5398 0.0866699 60.677 0.0866699H19.323C18.4602 0.0866699 17.7605 0.784158 17.7605 1.64461V7.25317H6.25C5.38719 7.25317 4.6875 7.95066 4.6875 8.81111V69.259H1.5625C0.699531 69.259 0 69.9565 0 70.8169V78.295C0 79.1555 0.699531 79.853 1.5625 79.853H32.9694C33.8322 79.853 34.5319 79.1555 34.5319 78.295C34.5319 77.4346 33.8322 76.7371 32.9694 76.7371H3.125V72.3749H76.875V76.7371H47.0309C46.1681 76.7371 45.4684 77.4346 45.4684 78.295C45.4684 79.1555 46.1681 79.853 47.0309 79.853H78.4375C79.3003 79.853 80 79.1555 80 78.295V70.8169C80 69.9565 79.3003 69.259 78.4375 69.259ZM20.8855 3.20254H59.1145V7.25317H20.8855V3.20254ZM38.4375 69.259H30.3125V59.9114C30.3125 55.1158 33.8364 51.127 38.4375 50.3796V69.259ZM41.5625 69.259V50.3796C46.1636 51.127 49.6875 55.1158 49.6875 59.9114V69.259H41.5625ZM52.8125 69.259V59.9114C52.8125 52.8672 47.0648 47.1363 40 47.1363C32.9352 47.1363 27.1875 52.8672 27.1875 59.9114V69.259H7.8125V10.369H72.1875V69.259H52.8125Z" fill="black"/>
<path d="M21.25 17.2239H13.75C12.8872 17.2239 12.1875 17.9214 12.1875 18.7819V26.26C12.1875 27.1204 12.8872 27.8179 13.75 27.8179H21.25C22.113 27.8179 22.8125 27.1204 22.8125 26.26V18.7819C22.8125 17.9214 22.113 17.2239 21.25 17.2239ZM19.6875 24.7021H15.3125V20.3398H19.6875V24.7021Z" fill="black"/>
<path d="M36.25 17.2239H28.75C27.887 17.2239 27.1875 17.9214 27.1875 18.7819V26.26C27.1875 27.1204 27.887 27.8179 28.75 27.8179H36.25C37.113 27.8179 37.8125 27.1204 37.8125 26.26V18.7819C37.8125 17.9214 37.113 17.2239 36.25 17.2239ZM34.6875 24.7021H30.3125V20.3398H34.6875V24.7021Z" fill="black"/>
<path d="M51.25 17.2239H43.75C42.8872 17.2239 42.1875 17.9214 42.1875 18.7819V26.26C42.1875 27.1204 42.8872 27.8179 43.75 27.8179H51.25C52.1128 27.8179 52.8125 27.1204 52.8125 26.26V18.7819C52.8125 17.9214 52.1128 17.2239 51.25 17.2239ZM49.6875 24.7021H45.3125V20.3398H49.6875V24.7021Z" fill="black"/>
<path d="M66.25 17.2239H58.75C57.8872 17.2239 57.1875 17.9214 57.1875 18.7819V26.26C57.1875 27.1204 57.8872 27.8179 58.75 27.8179H66.25C67.1128 27.8179 67.8125 27.1204 67.8125 26.26V18.7819C67.8125 17.9214 67.1128 17.2239 66.25 17.2239ZM64.6875 24.7021H60.3125V20.3398H64.6875V24.7021Z" fill="black"/>
<path d="M21.25 32.1801H13.75C12.8872 32.1801 12.1875 32.8776 12.1875 33.7381V41.2162C12.1875 42.0766 12.8872 42.7741 13.75 42.7741H21.25C22.113 42.7741 22.8125 42.0766 22.8125 41.2162V33.7381C22.8125 32.8776 22.113 32.1801 21.25 32.1801ZM19.6875 39.6582H15.3125V35.296H19.6875V39.6582Z" fill="black"/>
<path d="M36.25 32.1801H28.75C27.887 32.1801 27.1875 32.8776 27.1875 33.7381V41.2162C27.1875 42.0766 27.887 42.7741 28.75 42.7741H36.25C37.113 42.7741 37.8125 42.0766 37.8125 41.2162V33.7381C37.8125 32.8776 37.113 32.1801 36.25 32.1801ZM34.6875 39.6582H30.3125V35.296H34.6875V39.6582Z" fill="black"/>
<path d="M51.25 32.1801H43.75C42.8872 32.1801 42.1875 32.8776 42.1875 33.7381V41.2162C42.1875 42.0766 42.8872 42.7741 43.75 42.7741H51.25C52.1128 42.7741 52.8125 42.0766 52.8125 41.2162V33.7381C52.8125 32.8776 52.1128 32.1801 51.25 32.1801ZM49.6875 39.6582H45.3125V35.296H49.6875V39.6582Z" fill="black"/>
<path d="M66.25 32.1801H58.75C57.8872 32.1801 57.1875 32.8776 57.1875 33.7381V41.2162C57.1875 42.0766 57.8872 42.7741 58.75 42.7741H66.25C67.1128 42.7741 67.8125 42.0766 67.8125 41.2162V33.7381C67.8125 32.8776 67.1128 32.1801 66.25 32.1801ZM64.6875 39.6582H60.3125V35.296H64.6875V39.6582Z" fill="black"/>
<path d="M21.25 47.1363H13.75C12.8872 47.1363 12.1875 47.8338 12.1875 48.6942V56.1723C12.1875 57.0328 12.8872 57.7303 13.75 57.7303H21.25C22.113 57.7303 22.8125 57.0328 22.8125 56.1723V48.6942C22.8125 47.8338 22.113 47.1363 21.25 47.1363ZM19.6875 54.6144H15.3125V50.2522H19.6875V54.6144Z" fill="black"/>
<path d="M66.25 47.1363H58.75C57.8872 47.1363 57.1875 47.8338 57.1875 48.6942V56.1723C57.1875 57.0328 57.8872 57.7303 58.75 57.7303H66.25C67.1128 57.7303 67.8125 57.0328 67.8125 56.1723V48.6942C67.8125 47.8338 67.1128 47.1363 66.25 47.1363ZM64.6875 54.6144H60.3125V50.2522H64.6875V54.6144Z" fill="black"/>
<path d="M40 76.7371C39.5891 76.7371 39.1859 76.9038 38.8953 77.1936C38.6047 77.4834 38.4375 77.8853 38.4375 78.295C38.4375 78.7048 38.6045 79.1067 38.8953 79.3965C39.1859 79.6863 39.5891 79.853 40 79.853C40.4109 79.853 40.8141 79.6863 41.1045 79.3965C41.3952 79.1067 41.5625 78.7048 41.5625 78.295C41.5625 77.8853 41.3953 77.4834 41.1045 77.1936C40.8141 76.9038 40.4109 76.7371 40 76.7371Z" fill="black"/>
</svg>

