<svg width="80" height="80" viewBox="0 0 80 80" fill="none" xmlns="http://www.w3.org/2000/svg">
<g clip-path="url(#clip0)">
<path d="M71.3807 32.6355H41.2556C36.5028 32.6355 32.6362 36.5021 32.6362 41.2549V57.6221L24.8311 63.197C24.2152 63.6365 23.8496 64.3469 23.8496 65.1038C23.8496 65.8612 24.2152 66.5717 24.8311 67.0111L32.7302 72.6532C33.3473 76.8048 36.9355 80 41.2556 80H71.3807C76.1335 80 80.0001 76.1334 80.0001 71.38V41.2549C80.0001 36.5021 76.1335 32.6355 71.3807 32.6355ZM61.2513 65.5689C60.699 65.5689 60.2723 65.3937 60.1472 64.9164L59.1926 61.5772H53.4431L52.4897 64.9164C52.364 65.3937 51.9374 65.5689 51.385 65.5689C50.5061 65.5689 49.3263 65.0171 49.3263 64.2139C49.3263 64.1632 49.3513 64.0631 49.3763 63.9624L54.2219 48.1714C54.4478 47.4182 55.3767 47.0661 56.3057 47.0661C57.2596 47.0661 58.1886 47.4182 58.4144 48.1714L63.26 63.9624C63.285 64.0631 63.3101 64.1382 63.3101 64.2139C63.3101 64.9915 62.1302 65.5689 61.2513 65.5689Z" fill="#070608" fill-opacity="0.95"/>
<path d="M54.1211 59.0161H58.49L56.3049 51.3092L54.1211 59.0161Z" fill="#070608" fill-opacity="0.95"/>
<path d="M27.9486 41.2549C27.9486 38.1079 29.0491 35.2148 30.882 32.934C28.208 32.934 25.7269 32.0972 23.6816 30.6757C21.6364 32.0978 19.1553 32.934 16.4807 32.934C15.7513 32.934 15.1593 32.3419 15.1593 31.6119C15.1593 30.882 15.7513 30.2905 16.4807 30.2905C18.3539 30.2905 20.1068 29.7717 21.6077 28.8733C19.7974 26.9196 18.5938 24.397 18.3026 21.6052H16.4813C15.7513 21.6052 15.1593 21.0138 15.1593 20.2838C15.1593 19.5538 15.7513 18.9618 16.4813 18.9618H22.3608V15.7526C22.3608 15.022 22.9523 14.4305 23.6823 14.4305C24.4122 14.4305 25.0037 15.022 25.0037 15.7526V18.9618H30.8832C31.6132 18.9618 32.2052 19.5538 32.2052 20.2838C32.2052 21.0138 31.6132 21.6052 30.8832 21.6052H29.0619C28.7708 24.397 27.5671 26.9196 25.7568 28.8733C27.2571 29.7729 29.0106 30.2905 30.8832 30.2905C31.5808 30.2905 32.1509 30.8313 32.2003 31.5167C34.5776 29.3048 37.7606 27.948 41.2561 27.948H47.3645V22.3779L55.1697 16.803C55.7849 16.3635 56.1505 15.6531 56.1505 14.8962C56.1505 14.1388 55.7849 13.4283 55.1697 12.9889L47.2705 7.3468C46.6528 3.19519 43.0646 0 38.7445 0H8.62C3.86658 0 0 3.86658 0 8.61938V38.7451C0 43.4979 3.86658 47.3645 8.62 47.3645H27.9486V41.2549Z" fill="#070608" fill-opacity="0.95"/>
<path d="M23.6815 27.2217C25.1281 25.7208 26.1101 23.772 26.3976 21.6058H20.9661C21.2535 23.772 22.2362 25.7208 23.6815 27.2217Z" fill="#070608" fill-opacity="0.95"/>
</g>
<defs>
<clipPath id="clip0">
<rect width="80" height="80" fill="white"/>
</clipPath>
</defs>
</svg>
