<svg width="82" height="72" viewBox="0 0 82 72" fill="none" xmlns="http://www.w3.org/2000/svg">
<g filter="url(#filter0_i)">
<rect x="12" y="14.9999" width="69.77" height="35.223" rx="17.6115" fill="#7D7987" fill-opacity="0.4"/>
</g>
<g filter="url(#filter1_d)">
<ellipse cx="32.22" cy="31.895" rx="21.22" ry="20.895" fill="white"/>
</g>
<ellipse cx="32.2177" cy="31.5965" rx="15.155" ry="15.2235" fill="white"/>
<path d="M36.3129 27.7701C37.0756 28.5216 37.595 29.479 37.8053 30.5212C38.0157 31.5634 37.9075 32.6437 37.4946 33.6254C37.0817 34.6071 36.3825 35.4461 35.4854 36.0364C34.5884 36.6267 33.5338 36.9418 32.455 36.9418C31.3762 36.9418 30.3216 36.6267 29.4246 36.0364C28.5275 35.4461 27.8283 34.6071 27.4154 33.6254C27.0025 32.6437 26.8944 31.5634 27.1047 30.5212C27.315 29.479 27.8344 28.5216 28.5971 27.7701" stroke="#7D7987" stroke-width="3" stroke-linecap="round" stroke-linejoin="round"/>
<path d="M32.4583 25V30.97" stroke="#7D7987" stroke-width="3" stroke-linecap="round" stroke-linejoin="round"/>
<defs>
<filter id="filter0_i" x="12" y="14.9999" width="69.77" height="39.223" filterUnits="userSpaceOnUse" color-interpolation-filters="sRGB">
<feFlood flood-opacity="0" result="BackgroundImageFix"/>
<feBlend mode="normal" in="SourceGraphic" in2="BackgroundImageFix" result="shape"/>
<feColorMatrix in="SourceAlpha" type="matrix" values="0 0 0 0 0 0 0 0 0 0 0 0 0 0 0 0 0 0 127 0" result="hardAlpha"/>
<feOffset dy="4"/>
<feGaussianBlur stdDeviation="2"/>
<feComposite in2="hardAlpha" operator="arithmetic" k2="-1" k3="1"/>
<feColorMatrix type="matrix" values="0 0 0 0 0 0 0 0 0 0 0 0 0 0 0 0 0 0 0.25 0"/>
<feBlend mode="normal" in2="shape" result="effect1_innerShadow"/>
</filter>
<filter id="filter1_d" x="0" y="0" width="72.44" height="71.79" filterUnits="userSpaceOnUse" color-interpolation-filters="sRGB">
<feFlood flood-opacity="0" result="BackgroundImageFix"/>
<feColorMatrix in="SourceAlpha" type="matrix" values="0 0 0 0 0 0 0 0 0 0 0 0 0 0 0 0 0 0 127 0"/>
<feOffset dx="4" dy="4"/>
<feGaussianBlur stdDeviation="7.5"/>
<feColorMatrix type="matrix" values="0 0 0 0 0.580392 0 0 0 0 0.580392 0 0 0 0 0.580392 0 0 0 0.4 0"/>
<feBlend mode="normal" in2="BackgroundImageFix" result="effect1_dropShadow"/>
<feBlend mode="normal" in="SourceGraphic" in2="effect1_dropShadow" result="shape"/>
</filter>
</defs>
</svg>
