<svg width="80" height="64" viewBox="0 0 80 64" fill="none" xmlns="http://www.w3.org/2000/svg">
<path d="M80 36.0906C80 33.4521 78.5519 31.0748 76.2209 29.8864C73.8439 28.6744 70.7661 28.0597 67.0731 28.0597H26.9286C26.6395 26.6215 25.9991 25.3147 25.0383 24.2498L19.3453 17.9397C17.9366 16.3782 15.9122 15.43 13.6453 15.2702L12.6227 15.198C12.0991 15.1605 11.567 15.2342 11.0564 15.4049V12.0692C11.0564 10.9008 10.5628 9.8456 9.77375 9.09795C10.5739 8.14169 11.0564 6.91217 11.0564 5.57234C11.0564 2.53296 8.57641 0.0603638 5.52828 0.0603638C2.48016 0.0603638 0 2.53312 0 5.5725C0 6.91248 0.4825 8.14185 1.28266 9.09811C0.493594 9.84592 0 10.901 0 12.0694V61.7973C0 62.6576 0.699531 63.3553 1.5625 63.3553H6.95547C7.76141 63.3553 8.43516 62.7441 8.51109 61.9439C8.69719 59.982 9.73766 54.594 12.3155 52.1778H16.4994C17.3623 52.1778 18.0619 51.4802 18.0619 50.6199C18.0619 49.7596 17.3623 49.062 16.4994 49.062L3.12484 49.0618V35.3464L23.9805 35.3459V39.4057C23.9805 41.8078 25.9403 43.762 28.3495 43.762H28.3498H75.6311C76.0505 43.762 76.4728 43.7013 76.8748 43.5822V49.062H68.2645C68.2633 49.062 68.262 49.0621 68.2606 49.0621H30.2478C29.3848 49.0621 28.6853 49.7598 28.6853 50.6201C28.6853 51.4804 29.3848 52.178 30.2478 52.178H67.6845C70.2522 54.5875 71.2994 59.9806 71.4891 61.9441C71.565 62.7442 72.2386 63.3554 73.0447 63.3554H78.4375C79.3005 63.3554 80 62.6578 80 61.7975V36.0906ZM11.0602 20.4989C11.0834 19.8351 10.9922 19.1491 11.5408 18.661C12.0927 18.17 12.7547 18.3309 13.4247 18.3783C14.9009 18.4825 16.1448 19.0513 17.0219 20.0236L22.7148 26.3339C23.6377 27.3565 24.0803 28.782 23.9611 30.3473C23.9153 30.9499 23.9262 31.4841 23.4169 31.9093C22.9514 32.2978 22.4463 32.2254 21.8859 32.2087C20.3122 32.1616 18.9373 31.5724 18.0145 30.5496L12.3216 24.2395C11.4008 23.2186 11.0127 21.8543 11.0602 20.4989ZM3.125 32.2303V12.0694C3.125 11.5263 3.56813 11.0845 4.11281 11.0845H6.94328C7.48797 11.0845 7.93109 11.5263 7.93109 12.0694V32.2302H3.125V32.2303ZM11.0563 27.4956L15.3278 32.2303H11.0563V27.4956ZM5.52813 3.17639C6.85313 3.17639 7.93125 4.25121 7.93125 5.5725C7.93125 6.89378 6.85328 7.9686 5.52813 7.9686C4.20297 7.9686 3.125 6.89378 3.125 5.5725C3.125 4.25121 4.20297 3.17639 5.52813 3.17639ZM5.59406 60.2395H3.125V52.1782H8.36438C6.67344 54.938 5.90875 58.3523 5.59406 60.2395ZM28.3497 40.6463C27.6639 40.6463 27.1059 40.09 27.1059 39.4062L27.1053 31.1756H67.0731C70.2666 31.1756 72.8658 31.6753 74.7981 32.6605C76.0792 33.3136 76.875 34.6278 76.875 36.0906V39.4003C76.875 39.4023 76.8747 39.4043 76.8747 39.4064C76.8747 40.0901 76.3167 40.6465 75.6309 40.6465H28.3497V40.6463ZM74.4061 60.2395C74.0912 58.3523 73.3266 54.9382 71.6358 52.1782H76.875V60.2395H74.4061Z" fill="black"/>
<path d="M24.8171 50.0245C24.4938 49.2388 23.5608 48.8587 22.7764 49.1818C21.9892 49.506 21.6053 50.432 21.9311 51.2165C22.2567 52.0006 23.1854 52.3842 23.9718 52.0593C24.7566 51.7351 25.1438 50.8072 24.8171 50.0245Z" fill="black"/>
<path d="M74.9277 1.05743H59.0723C57.9297 1.05743 57 1.98316 57 3.121V15.9103C57 17.0482 57.9297 17.9739 59.0723 17.9739H74.9277C76.0704 17.9739 77 17.0482 77 15.9103V3.121C77 1.98316 76.0704 1.05743 74.9277 1.05743ZM59.0723 2.22589H74.9277C75.4234 2.22589 75.8266 2.62745 75.8266 3.121V14.0871H58.1734V3.121C58.1734 2.62745 58.5766 2.22589 59.0723 2.22589ZM74.9277 16.8055H59.0723C58.5766 16.8055 58.1734 16.4039 58.1734 15.9103V15.2555H75.8266V15.9103C75.8266 16.4039 75.4234 16.8055 74.9277 16.8055Z" fill="black"/>
<path d="M59.9812 10.1357H60.9807C61.3047 10.1357 61.5674 9.87418 61.5674 9.55154C61.5674 9.22891 61.3047 8.96735 60.9807 8.96735H59.9812C59.6572 8.96735 59.3945 9.22891 59.3945 9.55154C59.3945 9.87422 59.6572 10.1357 59.9812 10.1357Z" fill="black"/>
<path d="M59.9812 7.79889H60.9807C61.3047 7.79889 61.5674 7.53731 61.5674 7.21466C61.5674 6.89201 61.3047 6.63043 60.9807 6.63043H59.9812C59.6572 6.63043 59.3945 6.89201 59.3945 7.21466C59.3945 7.53735 59.6572 7.79889 59.9812 7.79889Z" fill="black"/>
<path d="M59.9812 5.46198H60.9807C61.3047 5.46198 61.5674 5.20038 61.5674 4.87772C61.5674 4.55505 61.3047 4.29346 60.9807 4.29346H59.9812C59.6572 4.29346 59.3945 4.55505 59.3945 4.87772C59.3945 5.20042 59.6572 5.46198 59.9812 5.46198Z" fill="black"/>
<path d="M63.8016 10.6204H73.2995C73.6235 10.6204 73.8862 10.3588 73.8862 10.0361V4.39306C73.8862 4.07042 73.6235 3.80884 73.2995 3.80884H63.8016C63.4775 3.80884 63.2148 4.07042 63.2148 4.39306V10.0361C63.2148 10.3588 63.4775 10.6204 63.8016 10.6204ZM64.3882 4.97729H72.7128V9.45191H64.3882V4.97729Z" fill="black"/>
<path d="M71.1988 11.8726C70.9879 11.7477 70.7157 11.767 70.5253 11.9217C70.3349 12.0765 70.2639 12.3405 70.3453 12.5703C70.4267 12.8 70.6531 12.9577 70.8973 12.9577C71.1739 12.9577 71.4182 12.7573 71.4727 12.4876C71.5209 12.2488 71.409 11.9973 71.1988 11.8726Z" fill="black"/>
<path d="M68.852 11.8726C68.6412 11.7477 68.3689 11.767 68.1786 11.9217C67.9881 12.0766 67.9172 12.3405 67.9987 12.5703C68.0801 12.7999 68.3064 12.9577 68.5505 12.9577C68.8277 12.9577 69.0708 12.7573 69.1259 12.4876C69.1747 12.249 69.0619 11.997 68.852 11.8726Z" fill="black"/>
<path d="M66.5052 11.8726C66.2943 11.7477 66.0221 11.767 65.8317 11.9217C65.6413 12.0765 65.5703 12.3405 65.6517 12.5703C65.733 12.7999 65.9595 12.9577 66.2037 12.9577C66.4808 12.9577 66.7239 12.7573 66.779 12.4876C66.8278 12.249 66.715 11.997 66.5052 11.8726Z" fill="black"/>
</svg>
