<svg width="80" height="75" viewBox="0 0 80 75" fill="none" xmlns="http://www.w3.org/2000/svg">
<path d="M78.955 47.0329L71.7491 44.5042C71.0009 44.2421 70.1753 44.5807 69.8277 45.2928L68.6383 47.7279L65.1536 46.269C64.635 44.6262 63.9489 43.2495 63.1639 42.0946H72.6906H72.7047C74.4141 42.0946 76.0544 41.3692 77.2053 40.1043L78.3633 38.8315C78.9439 38.1932 78.8973 37.205 78.2591 36.6243C77.6206 36.0437 76.6325 36.0901 76.0519 36.7286L74.8939 38.0014C74.6452 38.2748 74.3475 38.4931 74.0214 38.655C73.5956 36.1543 72.4103 31.3768 69.1939 26.5704C66.5055 22.5531 62.9542 19.3528 58.6391 17.0586C53.6789 14.4214 47.705 12.9948 40.8657 12.8073V10.1456C43.0946 9.66968 44.7716 7.68468 44.7716 5.31437V4.94046C44.7716 2.21625 42.5569 0 39.8346 0H38.7721C36.0497 0 33.835 2.21625 33.835 4.94046V5.31437C33.835 7.68468 35.5121 9.66952 37.7408 10.1455V12.8064C33.675 12.9183 29.8943 13.4687 26.4835 14.4492C25.6541 14.6875 25.1749 15.5531 25.4133 16.3825C25.6516 17.2119 26.5172 17.6906 27.3466 17.4526C30.91 16.4284 34.9327 15.9092 39.3032 15.9092C51.8472 15.9092 61.0047 20.0429 66.521 28.1953C69.3767 32.4161 70.4842 36.6964 70.8981 38.9696H60.2258C57.9152 37.1989 55.0516 36.24 52.1633 36.0262C51.6263 35.9865 51.0866 35.9717 50.5483 35.9903C50.3475 35.997 36.94 36.0139 36.94 36.0139C34.9924 36.0139 33.1786 37.1942 32.3815 38.9696H18.5735H7.70992C8.28039 35.8595 10.1546 28.9954 16.0315 23.6181C16.6682 23.0354 16.7119 22.0472 16.1294 21.4106C15.5469 20.774 14.5585 20.73 13.9219 21.3126C7.17445 27.4864 5.16383 35.2151 4.58242 38.654C4.19695 38.4596 3.85383 38.1803 3.57883 37.8268L2.7957 36.8206C2.26555 36.1395 1.28383 36.017 0.60305 36.547C-0.0780427 37.077 -0.200543 38.0587 0.329457 38.7396L1.11242 39.7459C2.27383 41.2387 4.02414 42.0948 5.91476 42.0948H13.9044C13.6563 42.697 13.5262 43.3476 13.5262 44.0182C13.5262 46.1128 14.8441 48.0135 16.8065 48.7484L19.4965 49.7543C19.5623 49.7789 19.6296 49.799 19.698 49.8145C20.5574 50.0096 21.5094 50.2324 22.5327 50.472C28.868 51.9551 37.5447 53.9863 44.4624 54.2507C46.8553 54.3421 49.2032 54.9306 51.3449 56.0031L61.993 61.3346L60.5649 64.2587C60.3827 64.6315 60.3564 65.0613 60.4916 65.4535C60.6267 65.8457 60.9124 66.168 61.2855 66.3495L77.7542 74.3573C78.7775 74.8549 80 74.0821 80 72.9521V48.5073C80 47.8438 79.5811 47.2526 78.955 47.0329ZM36.9594 5.31453V4.94062C36.9594 3.93953 37.7724 3.12515 38.7714 3.12515H39.8339C40.8332 3.12515 41.646 3.93953 41.646 4.94062V5.31453C41.646 6.31562 40.833 7.12999 39.8339 7.12999H38.7714C37.7724 7.12984 36.9594 6.31546 36.9594 5.31453ZM50.3699 52.2035C48.5094 51.5562 46.5493 51.2029 44.5818 51.1278C37.9644 50.8748 29.4569 48.8832 23.2451 47.429C22.2551 47.1973 21.3312 46.981 20.4926 46.7903L17.9016 45.8214C17.0888 45.5171 16.5698 44.6721 16.6623 43.81C16.7655 42.847 17.6052 42.0946 18.5727 42.0946H32.0618C32.264 43.0154 32.7243 43.8618 33.4068 44.5468C34.3499 45.4909 35.6043 46.0109 36.9386 46.0109H49.6247C50.1058 46.0109 50.5602 45.7893 50.8563 45.4099C51.1525 45.0307 51.2572 44.5362 51.1405 44.0693V44.069C50.9666 43.3734 50.3416 42.8854 49.6246 42.8854H36.9391C35.9193 42.8854 35.0697 42.0306 35.0697 41.0118C35.0697 39.999 35.9232 39.1396 36.9385 39.1396H50.1747C52.6011 39.1396 54.9133 39.4278 57.0808 40.6373C59.8117 42.161 61.5485 44.8606 62.3558 47.8323C62.3749 47.9024 62.3991 47.9718 62.4277 48.0385C62.5875 48.4115 62.8861 48.7078 63.2605 48.8643L67.2636 50.5403L63.3641 58.526L52.7436 53.2084C51.9541 52.8131 51.156 52.4751 50.3699 52.2035ZM76.875 70.4548L64.0597 64.2235L65.48 61.3156L65.5099 61.2543L72.0256 47.9132L76.875 49.6149V70.4548Z" fill="black"/>
<path d="M20.6121 20.0479C22.106 20.0479 22.7281 18.067 21.5109 17.2078C20.359 16.3948 18.7582 17.485 19.0956 18.8568C19.2652 19.5465 19.9007 20.0479 20.6121 20.0479Z" fill="black"/>
</svg>
